PathFileType	4	(x/y/z)	S09_BK_Cal_T01
DataRate	CameraRate	NumFrames	NumMarkers	Units	OrigDataRate	OrigDataStartFrame	OrigNumFrames
240	240	11	51	mm	240	2101	2400
Frame#	Time	Sternum			R.Acromium			L.Acromium			Top.Head			R.ASIS			L.ASIS			R.PSIS			L.PSIS			R.Great.Tro			L.Great.Tro			R.Iliac.Crest			L.Iliac.Crest			V.Sacral			R.Thigh.Upper.Post			R.Thigh.Lower.Ant			R.Thigh.Lower.Post			R.Thigh.Upper.Ant			R.Knee.Lat			R.Knee.Med			R.Shank.Upper.Post			R.Shank.Lower.Ant			R.Shank.Lower.Post			R.Shank.Upper.Ant			R.Ankle.Lat			R.Ankle.Med			R.Heel.Upper			R.Heel.Med			R.Heel.Lat			R.Toe.Lat			R.Toe.Med			R.Toe.Tip			L.Thigh.Upper.Post			L.Thigh.Lower.Ant			L.Thigh.Lower.Post			L.Thigh.Upper.Ant			L.Knee.Lat			L.Knee.Med			L.Shank.Upper.Post			L.Shank.Lower.Ant			L.Shank.Lower.Post			L.Shank.Upper.Ant			L.Ankle.Lat			L.Ankle.Med			L.Heel.Upper			L.Heel.Med			L.Heel.Lat			L.Toe.Lat			L.Toe.Med			L.Toe.Tip			Cervical.Spine			Back			
		X1	Y1	Z1	X2	Y2	Z2	X3	Y3	Z3	X4	Y4	Z4	X5	Y5	Z5	X6	Y6	Z6	X7	Y7	Z7	X8	Y8	Z8	X9	Y9	Z9	X10	Y10	Z10	X11	Y11	Z11	X12	Y12	Z12	X13	Y13	Z13	X14	Y14	Z14	X15	Y15	Z15	X16	Y16	Z16	X17	Y17	Z17	X18	Y18	Z18	X19	Y19	Z19	X20	Y20	Z20	X21	Y21	Z21	X22	Y22	Z22	X23	Y23	Z23	X24	Y24	Z24	X25	Y25	Z25	X26	Y26	Z26	X27	Y27	Z27	X28	Y28	Z28	X29	Y29	Z29	X30	Y30	Z30	X31	Y31	Z31	X32	Y32	Z32	X33	Y33	Z33	X34	Y34	Z34	X35	Y35	Z35	X36	Y36	Z36	X37	Y37	Z37	X38	Y38	Z38	X39	Y39	Z39	X40	Y40	Z40	X41	Y41	Z41	X42	Y42	Z42	X43	Y43	Z43	X44	Y44	Z44	X45	Y45	Z45	X46	Y46	Z46	X47	Y47	Z47	X48	Y48	Z48	X49	Y49	Z49	X50	Y50	Z50	X51	Y51	Z51	

2101	8.75	563.93	1101.8	292.71	457.09	1368.8	440.19	469.15	1368.4	125.01	515.9	1671.5	295.77	459.06	945.27	394.83	460.39	943.78	149.67	247.35	1006.4	316.16	254.13	1007.1	225.86	371.4	879.16	469.87	383.33	873.47	78.971	390.09	1039	436.07	383.75	1053	113.11	226.17	974.26	267.47	456.85	644.34	461.61	564.02	578.32	430.34	487.14	557.89	434.81	527.81	658.61	455.09	567.75	494.84	420.78	565.24	483.49	298.95	462	344.41	431.56	508.99	266.76	419.39	436.95	272.18	423.92	527.08	338.13	428.34	397.07	95.533	407.21	430.85	100.9	322.74	332.63	76.647	358.93	342.34	43.991	331.02	334.17	47.622	395.82	492.2	41.09	453.12	541.97	45.139	348.13	588.74	61.183	395.24	418.89	610.25	116.09	532.67	552.82	106.46	471.36	535.11	133.71	484.29	625.38	84.63	545.66	477.15	116.93	573.41	493.23	247.65	477.24	370	104.66	513.51	266.27	115.5	456.79	295.81	109	534.41	341.77	111.52	412.53	107.05	131.2	426.11	94.045	224.7	336.61	70.879	175.89	347.23	45.79	208.74	337.81	43.543	147.26	511.44	44.015	94.972	547.41	42.974	203.66	599.72	60.074	146.45	391.35	1425.6	291.43	305.2	1177.9	269.69
2102	8.7542	563.88	1101.7	292.72	457.07	1368.8	440.2	469.11	1368.4	125.03	515.88	1671.5	295.79	459.04	945.24	394.83	460.37	943.75	149.68	247.32	1006.3	316.18	254.1	1007.1	225.88	371.4	879.13	469.88	383.31	873.44	78.98	390.08	1039	436.08	383.73	1053	113.13	226.15	974.23	267.48	456.87	644.32	461.6	564.04	578.3	430.33	487.16	557.86	434.79	527.83	658.59	455.07	567.78	494.83	420.76	565.27	483.48	298.94	462.02	344.4	431.55	509.01	266.75	419.38	436.96	272.18	423.91	527.1	338.13	428.33	397.07	95.533	407.21	430.86	100.9	322.74	332.63	76.647	358.93	342.34	43.989	331.02	334.17	47.622	395.82	492.2	41.095	453.12	541.97	45.135	348.12	588.74	61.183	395.23	418.89	610.22	116.12	532.67	552.8	106.48	471.36	535.09	133.74	484.28	625.36	84.642	545.67	477.12	116.95	573.42	493.21	247.66	477.27	369.98	104.66	513.53	266.26	115.5	456.79	295.8	109	534.42	341.75	111.52	412.57	107.03	131.19	426.11	94.048	224.69	336.6	70.874	175.88	347.22	45.788	208.73	337.8	43.535	147.26	511.44	44.017	94.965	547.41	42.988	203.66	599.71	60.113	146.44	391.33	1425.6	291.45	305.17	1177.9	269.72
2103	8.7583	563.84	1101.7	292.72	457.05	1368.7	440.22	469.07	1368.4	125.04	515.86	1671.5	295.82	459.03	945.21	394.84	460.35	943.73	149.69	247.3	1006.3	316.21	254.08	1007	225.89	371.39	879.1	469.89	383.3	873.41	78.989	390.06	1039	436.1	383.71	1053	113.15	226.13	974.19	267.5	456.89	644.29	461.59	564.07	578.28	430.32	487.19	557.83	434.78	527.85	658.57	455.06	567.8	494.81	420.75	565.29	483.46	298.92	462.04	344.4	431.53	509.03	266.74	419.37	436.98	272.18	423.9	527.12	338.12	428.32	397.07	95.533	407.2	430.86	100.89	322.73	332.63	76.648	358.93	342.34	43.987	331.02	334.17	47.622	395.82	492.2	41.099	453.12	541.97	45.132	348.12	588.74	61.182	395.23	418.89	610.2	116.15	532.67	552.79	106.49	471.37	535.08	133.76	484.27	625.33	84.655	545.69	477.1	116.97	573.44	493.2	247.68	477.29	369.97	104.67	513.54	266.25	115.51	456.8	295.79	108.99	534.44	341.74	111.53	412.61	107.01	131.18	426.11	94.051	224.68	336.6	70.868	175.88	347.22	45.787	208.73	337.8	43.528	147.26	511.43	44.02	94.959	547.4	43.002	203.66	599.69	60.155	146.43	391.31	1425.5	291.47	305.14	1177.9	269.74
2104	8.7625	563.8	1101.6	292.73	457.03	1368.7	440.23	469.03	1368.4	125.05	515.84	1671.4	295.84	459.02	945.17	394.85	460.33	943.71	149.7	247.28	1006.3	316.23	254.06	1007	225.91	371.38	879.07	469.9	383.29	873.38	78.998	390.04	1038.9	436.12	383.69	1053	113.17	226.12	974.16	267.52	456.91	644.27	461.59	564.09	578.26	430.31	487.21	557.81	434.77	527.86	658.56	455.06	567.83	494.8	420.74	565.32	483.45	298.91	462.06	344.39	431.51	509.04	266.74	419.37	437	272.18	423.89	527.14	338.11	428.31	397.07	95.534	407.2	430.86	100.89	322.73	332.63	76.648	358.92	342.34	43.986	331.02	334.17	47.623	395.82	492.21	41.103	453.11	541.97	45.129	348.12	588.75	61.181	395.22	418.89	610.18	116.17	532.67	552.77	106.5	471.38	535.06	133.78	484.26	625.31	84.669	545.7	477.07	116.99	573.46	493.19	247.69	477.31	369.95	104.67	513.56	266.24	115.52	456.81	295.78	108.99	534.45	341.72	111.54	412.65	106.99	131.17	426.11	94.055	224.66	336.59	70.862	175.87	347.21	45.785	208.73	337.8	43.52	147.25	511.42	44.022	94.952	547.39	43.017	203.66	599.67	60.198	146.42	391.28	1425.5	291.48	305.11	1177.8	269.76
2105	8.7667	563.76	1101.6	292.73	457.01	1368.7	440.25	468.99	1368.3	125.06	515.82	1671.4	295.87	459	945.14	394.86	460.32	943.69	149.71	247.26	1006.2	316.25	254.04	1007	225.92	371.38	879.04	469.91	383.29	873.36	79.007	390.02	1038.9	436.13	383.67	1053	113.19	226.1	974.12	267.53	456.93	644.24	461.58	564.11	578.24	430.31	487.23	557.78	434.76	527.88	658.54	455.05	567.85	494.79	420.73	565.35	483.43	298.9	462.08	344.39	431.5	509.05	266.73	419.36	437.01	272.17	423.88	527.16	338.1	428.3	397.07	95.534	407.2	430.86	100.89	322.72	332.63	76.649	358.92	342.34	43.985	331.01	334.17	47.623	395.82	492.21	41.107	453.11	541.97	45.125	348.11	588.75	61.179	395.22	418.89	610.16	116.2	532.67	552.75	106.52	471.39	535.04	133.8	484.26	625.29	84.685	545.71	477.05	117.01	573.47	493.18	247.71	477.34	369.93	104.67	513.57	266.23	115.53	456.82	295.77	108.99	534.46	341.7	111.54	412.68	106.97	131.16	426.11	94.06	224.65	336.58	70.856	175.86	347.21	45.784	208.72	337.79	43.513	147.25	511.42	44.024	94.945	547.39	43.033	203.66	599.65	60.242	146.41	391.26	1425.4	291.5	305.08	1177.8	269.78
2106	8.7708	563.72	1101.6	292.74	456.99	1368.6	440.26	468.95	1368.3	125.07	515.81	1671.4	295.89	458.99	945.11	394.87	460.31	943.67	149.72	247.24	1006.2	316.28	254.02	1006.9	225.94	371.37	879.01	469.93	383.28	873.33	79.016	390	1038.9	436.15	383.65	1052.9	113.21	226.09	974.09	267.54	456.95	644.22	461.58	564.14	578.23	430.3	487.26	557.76	434.76	527.9	658.53	455.04	567.88	494.77	420.72	565.37	483.42	298.9	462.1	344.38	431.49	509.07	266.72	419.35	437.02	272.17	423.87	527.17	338.09	428.29	397.07	95.534	407.19	430.86	100.89	322.72	332.63	76.65	358.92	342.34	43.984	331.01	334.17	47.624	395.82	492.21	41.11	453.11	541.97	45.122	348.11	588.75	61.177	395.22	418.89	610.14	116.22	532.68	552.74	106.53	471.4	535.03	133.82	484.26	625.28	84.701	545.73	477.03	117.03	573.49	493.17	247.72	477.36	369.92	104.66	513.59	266.22	115.54	456.84	295.76	108.99	534.47	341.69	111.55	412.72	106.95	131.15	426.11	94.066	224.64	336.58	70.85	175.86	347.21	45.783	208.72	337.79	43.505	147.24	511.41	44.026	94.939	547.38	43.048	203.65	599.63	60.287	146.4	391.24	1425.4	291.51	305.05	1177.8	269.8
2107	8.775	563.68	1101.5	292.74	456.97	1368.6	440.27	468.91	1368.3	125.08	515.79	1671.4	295.91	458.98	945.08	394.88	460.29	943.65	149.73	247.22	1006.2	316.3	254	1006.9	225.95	371.37	878.99	469.94	383.27	873.31	79.024	389.98	1038.8	436.17	383.64	1052.9	113.23	226.07	974.06	267.56	456.97	644.2	461.58	564.16	578.21	430.3	487.28	557.73	434.76	527.91	658.51	455.04	567.9	494.76	420.72	565.39	483.4	298.89	462.11	344.38	431.48	509.08	266.72	419.35	437.04	272.17	423.87	527.19	338.08	428.28	397.07	95.534	407.19	430.86	100.88	322.71	332.64	76.651	358.92	342.34	43.983	331.01	334.17	47.625	395.82	492.21	41.113	453.1	541.97	45.119	348.11	588.75	61.174	395.21	418.9	610.13	116.25	532.69	552.73	106.55	471.41	535.02	133.84	484.26	625.26	84.72	545.74	477.01	117.05	573.5	493.16	247.74	477.39	369.9	104.66	513.61	266.2	115.55	456.86	295.75	108.99	534.48	341.67	111.55	412.74	106.94	131.14	426.11	94.072	224.63	336.57	70.845	175.85	347.2	45.782	208.71	337.79	43.498	147.24	511.4	44.029	94.932	547.37	43.063	203.65	599.61	60.332	146.4	391.22	1425.4	291.53	305.02	1177.8	269.82
2108	8.7792	563.64	1101.5	292.75	456.95	1368.6	440.28	468.88	1368.3	125.09	515.78	1671.3	295.93	458.97	945.05	394.89	460.28	943.63	149.74	247.2	1006.1	316.32	253.98	1006.9	225.97	371.36	878.97	469.95	383.27	873.29	79.032	389.97	1038.8	436.19	383.62	1052.9	113.26	226.06	974.03	267.57	456.98	644.19	461.58	564.18	578.2	430.3	487.3	557.71	434.76	527.93	658.5	455.04	567.92	494.75	420.71	565.42	483.39	298.89	462.13	344.37	431.47	509.09	266.71	419.35	437.05	272.17	423.86	527.21	338.08	428.28	397.07	95.534	407.19	430.86	100.88	322.71	332.64	76.653	358.92	342.34	43.983	331.01	334.17	47.627	395.82	492.21	41.115	453.1	541.97	45.116	348.11	588.75	61.171	395.21	418.91	610.11	116.27	532.69	552.72	106.56	471.42	535	133.86	484.26	625.24	84.739	545.76	476.99	117.06	573.52	493.15	247.76	477.41	369.89	104.66	513.62	266.19	115.56	456.88	295.74	108.99	534.48	341.66	111.56	412.77	106.92	131.14	426.11	94.079	224.62	336.56	70.84	175.84	347.2	45.781	208.71	337.78	43.491	147.23	511.4	44.031	94.926	547.37	43.078	203.66	599.58	60.376	146.39	391.2	1425.4	291.54	304.99	1177.8	269.84
2109	8.7833	563.6	1101.5	292.76	456.93	1368.5	440.3	468.85	1368.2	125.11	515.77	1671.3	295.95	458.96	945.03	394.9	460.27	943.61	149.75	247.18	1006.1	316.34	253.96	1006.8	225.98	371.35	878.94	469.96	383.27	873.27	79.04	389.95	1038.8	436.2	383.61	1052.9	113.28	226.05	974	267.58	457	644.17	461.58	564.2	578.19	430.3	487.32	557.69	434.76	527.94	658.49	455.04	567.95	494.74	420.71	565.44	483.38	298.89	462.14	344.37	431.47	509.1	266.71	419.35	437.06	272.16	423.86	527.22	338.07	428.27	397.07	95.535	407.18	430.86	100.88	322.7	332.64	76.655	358.92	342.34	43.983	331.01	334.17	47.628	395.82	492.21	41.116	453.1	541.97	45.113	348.11	588.76	61.168	395.21	418.92	610.1	116.29	532.7	552.7	106.58	471.43	534.99	133.88	484.26	625.23	84.76	545.77	476.98	117.08	573.53	493.14	247.77	477.44	369.87	104.66	513.64	266.18	115.57	456.9	295.73	108.99	534.48	341.65	111.57	412.79	106.91	131.13	426.11	94.086	224.6	336.56	70.835	175.84	347.19	45.78	208.71	337.78	43.484	147.23	511.39	44.033	94.92	547.36	43.092	203.66	599.56	60.418	146.38	391.18	1425.3	291.55	304.96	1177.7	269.86
2110	8.7875	563.57	1101.4	292.76	456.91	1368.5	440.31	468.82	1368.2	125.12	515.75	1671.3	295.97	458.96	945	394.91	460.27	943.6	149.76	247.17	1006.1	316.36	253.95	1006.8	226	371.34	878.92	469.97	383.27	873.26	79.048	389.94	1038.7	436.22	383.6	1052.9	113.3	226.04	973.98	267.59	457.01	644.16	461.58	564.22	578.18	430.31	487.34	557.67	434.76	527.96	658.48	455.04	567.96	494.73	420.71	565.46	483.36	298.89	462.16	344.37	431.47	509.11	266.7	419.35	437.07	272.16	423.86	527.23	338.07	428.27	397.07	95.535	407.18	430.87	100.87	322.7	332.64	76.657	358.92	342.34	43.984	331.01	334.18	47.63	395.82	492.22	41.117	453.1	541.97	45.11	348.1	588.76	61.164	395.2	418.92	610.09	116.31	532.71	552.7	106.59	471.44	534.98	133.89	484.27	625.22	84.781	545.79	476.97	117.1	573.54	493.14	247.79	477.46	369.86	104.66	513.66	266.17	115.58	456.92	295.72	108.99	534.48	341.63	111.57	412.81	106.9	131.12	426.11	94.094	224.59	336.55	70.83	175.83	347.19	45.779	208.7	337.78	43.478	147.22	511.38	44.035	94.914	547.35	43.106	203.66	599.54	60.46	146.37	391.17	1425.3	291.57	304.94	1177.7	269.88
2111	8.7917	563.53	1101.4	292.77	456.89	1368.5	440.33	468.79	1368.2	125.13	515.74	1671.3	295.99	458.95	944.98	394.92	460.26	943.58	149.78	247.15	1006.1	316.38	253.94	1006.8	226.01	371.34	878.9	469.98	383.27	873.24	79.056	389.92	1038.7	436.24	383.59	1052.9	113.32	226.03	973.95	267.6	457.02	644.14	461.58	564.24	578.17	430.31	487.36	557.66	434.77	527.97	658.47	455.05	567.98	494.72	420.72	565.48	483.35	298.9	462.17	344.36	431.47	509.12	266.7	419.35	437.08	272.16	423.86	527.24	338.06	428.28	397.07	95.536	407.18	430.87	100.87	322.69	332.64	76.66	358.91	342.34	43.985	331.01	334.18	47.632	395.82	492.22	41.117	453.1	541.97	45.108	348.1	588.76	61.16	395.2	418.93	610.08	116.32	532.72	552.69	106.61	471.45	534.98	133.91	484.28	625.2	84.803	545.81	476.95	117.11	573.55	493.13	247.81	477.49	369.85	104.65	513.68	266.17	115.59	456.94	295.71	108.99	534.47	341.62	111.58	412.83	106.89	131.11	426.1	94.101	224.58	336.55	70.826	175.82	347.19	45.779	208.7	337.78	43.471	147.22	511.38	44.036	94.909	547.35	43.118	203.66	599.52	60.5	146.37	391.15	1425.3	291.58	304.91	1177.7	269.9
